<?xml version="1.0" standalone="no"?><!DOCTYPE svg PUBLIC "-//W3C//DTD SVG 1.1//EN" "http://www.w3.org/Graphics/SVG/1.1/DTD/svg11.dtd"><svg t="1595060384235" class="icon" viewBox="0 0 1143 1024" version="1.1" xmlns="http://www.w3.org/2000/svg" p-id="2612" xmlns:xlink="http://www.w3.org/1999/xlink" width="223.2421875" height="200"><defs><style type="text/css"></style></defs><path d="M1118.375636 246.987487L980.797656 37.715918A70.377306 70.377306 0 0 0 922.038749 6.019804H214.544996a70.377306 70.377306 0 0 0-58.741357 31.696114L18.24321 246.987487a70.254453 70.254453 0 0 0 2.509714 80.749622l491.289755 655.98318a70.272003 70.272003 0 0 0 112.533488 0L1115.883472 327.737109a70.289553 70.289553 0 0 0 2.492164-80.749622zM569.941615 76.326908l133.488725 185.841719H433.188506l133.488725-185.841719h3.264384z m148.406608 232.701421L568.309423 853.408196l-150.05635-544.379867h300.09515zM627.629945 76.326908h242.933333l-121.449116 169.116139-121.484217-169.116139z m-413.084949 0h294.426355l-121.466667 169.116139-80.942677-112.691441a23.412301 23.412301 0 1 0-38.049376 27.343602l73.290681 102.073419H92.393862l122.151134-185.841719zM94.552568 309.028329h275.103308l160.18296 581.218262L94.552568 309.028329z m512.209892 581.218262l160.18296-581.218262h49.474719a23.429851 23.429851 0 0 0 0-46.859702h-21.622155l130.224341-181.313702 119.202659 181.313702h-81.293686a23.447402 23.447402 0 1 0 0 46.859702h79.13498L606.76246 890.246591z" p-id="2613" fill="#ffffff"></path></svg>